<svg width="1200" height="800" viewBox="0 0 1200 800" fill="none" xmlns="http://www.w3.org/2000/svg">
  <rect width="1200" height="800" rx="32" fill="#F4EEE1"/>
  <rect y="500" width="1200" height="300" fill="#E5D8BF"/>
  <rect x="90" y="98" width="1020" height="288" rx="22" fill="#DAE4EF"/>
  <rect x="126" y="132" width="948" height="220" rx="16" fill="#B9CEE4"/>
  <rect x="380" y="186" width="440" height="138" rx="18" fill="#EDF3F8"/>
  <rect x="420" y="220" width="360" height="70" rx="10" fill="#D8E5F0"/>
  <rect x="340" y="370" width="520" height="52" rx="14" fill="#8B694A"/>
  <g fill="#213156">
    <rect x="156" y="462" width="118" height="104" rx="22"/>
    <rect x="300" y="462" width="118" height="104" rx="22"/>
    <rect x="444" y="462" width="118" height="104" rx="22"/>
    <rect x="588" y="462" width="118" height="104" rx="22"/>
    <rect x="732" y="462" width="118" height="104" rx="22"/>
    <rect x="876" y="462" width="118" height="104" rx="22"/>
  </g>
  <g fill="#25375C">
    <rect x="204" y="588" width="124" height="102" rx="22"/>
    <rect x="368" y="588" width="124" height="102" rx="22"/>
    <rect x="532" y="588" width="124" height="102" rx="22"/>
    <rect x="696" y="588" width="124" height="102" rx="22"/>
    <rect x="860" y="588" width="124" height="102" rx="22"/>
  </g>
</svg>
