<svg width="1200" height="800" viewBox="0 0 1200 800" fill="none" xmlns="http://www.w3.org/2000/svg">
  <rect width="1200" height="800" rx="32" fill="#F4EFE4"/>
  <rect y="460" width="1200" height="340" fill="#E7DCC7"/>
  <rect x="100" y="110" width="1000" height="300" rx="18" fill="#D7E1EC"/>
  <rect x="132" y="142" width="936" height="236" rx="12" fill="#B8CBE0"/>
  <rect x="218" y="244" width="764" height="160" rx="22" fill="#CFB287"/>
  <rect x="256" y="270" width="688" height="106" rx="18" fill="#8B6748"/>
  <rect x="292" y="250" width="616" height="22" rx="11" fill="#9C7B58"/>
  <g fill="#1B2748">
    <rect x="180" y="316" width="42" height="136" rx="16"/>
    <rect x="978" y="316" width="42" height="136" rx="16"/>
  </g>
  <g fill="#223155">
    <rect x="204" y="320" width="92" height="130" rx="24"/>
    <rect x="312" y="320" width="92" height="130" rx="24"/>
    <rect x="420" y="320" width="92" height="130" rx="24"/>
    <rect x="528" y="320" width="92" height="130" rx="24"/>
    <rect x="636" y="320" width="92" height="130" rx="24"/>
    <rect x="744" y="320" width="92" height="130" rx="24"/>
    <rect x="852" y="320" width="92" height="130" rx="24"/>
  </g>
  <rect x="452" y="150" width="296" height="160" rx="18" fill="#EEF4FA"/>
  <rect x="484" y="184" width="232" height="92" rx="12" fill="#D4E6F6"/>
</svg>
