<svg width="1200" height="800" viewBox="0 0 1200 800" fill="none" xmlns="http://www.w3.org/2000/svg">
  <rect width="1200" height="800" rx="32" fill="#F3EEE3"/>
  <rect y="520" width="1200" height="280" fill="#E2D6C0"/>
  <rect x="108" y="104" width="984" height="312" rx="20" fill="#D9E5F0"/>
  <rect x="138" y="136" width="924" height="250" rx="14" fill="#B6CCE3"/>
  <rect x="164" y="142" width="250" height="238" rx="18" fill="#F4F6F8"/>
  <rect x="194" y="190" width="190" height="132" rx="12" fill="#DCE6F1"/>
  <rect x="472" y="254" width="406" height="176" rx="24" fill="#8D684C"/>
  <rect x="510" y="284" width="330" height="116" rx="20" fill="#A47A57"/>
  <g fill="#1C294C">
    <rect x="452" y="344" width="76" height="136" rx="24"/>
    <rect x="824" y="344" width="76" height="136" rx="24"/>
    <rect x="566" y="366" width="92" height="124" rx="24"/>
    <rect x="672" y="366" width="92" height="124" rx="24"/>
  </g>
  <rect x="912" y="170" width="122" height="210" rx="14" fill="#F7F2EA"/>
  <rect x="940" y="204" width="66" height="140" rx="10" fill="#D4DDE8"/>
</svg>
